<svg viewBox="0 0 16 16" fill="none" xmlns="http://www.w3.org/2000/svg">
<g id="check-02-filled">
<path id="Icon" d="M4.51904 7.92925C4.70689 7.89034 4.90322 7.91693 5.0705 8.01085C5.47562 8.23832 5.79512 8.45709 6.12678 8.75685C6.26699 8.88357 6.48889 8.86383 6.59566 8.70789C7.84629 6.88148 9.33322 4.89594 11.0547 3.45902C11.1041 3.41783 11.1605 3.38617 11.2211 3.36476C11.2801 3.34391 11.3423 3.33325 11.4049 3.33325H11.446C12.1478 3.33325 12.5137 4.19002 12.0528 4.71929C10.2783 6.75686 8.7553 8.99913 7.31099 11.3106C6.92033 11.9357 6.01557 11.9448 5.59465 11.3396C5.1263 10.6662 4.6674 10.0804 4.1145 9.5272C3.60515 9.01757 3.81348 8.07538 4.51904 7.92925Z" fill="currentColor"/>
</g>
</svg>
