<svg viewBox="0 0 16 18" fill="none" xmlns="http://www.w3.org/2000/svg">
<path d="M14.6667 16.5C14.6667 15.337 14.6667 14.7555 14.5231 14.2824C14.2 13.217 13.3663 12.3834 12.301 12.0602C11.8278 11.9167 11.2463 11.9167 10.0833 11.9167H5.91668C4.75371 11.9167 4.17222 11.9167 3.69906 12.0602C2.63372 12.3834 1.80004 13.217 1.47688 14.2824C1.33334 14.7555 1.33334 15.337 1.33334 16.5M11.75 5.25C11.75 7.32107 10.0711 9 8.00001 9C5.92894 9 4.25001 7.32107 4.25001 5.25C4.25001 3.17893 5.92894 1.5 8.00001 1.5C10.0711 1.5 11.75 3.17893 11.75 5.25Z" stroke="currentColor" stroke-width="1.67" stroke-linecap="round" stroke-linejoin="round"/>
</svg>
